<?xml version="1.0" encoding="iso-8859-1"?>
<!-- Generator: Adobe Illustrator 19.0.0, SVG Export Plug-In . SVG Version: 6.00 Build 0)  -->
<svg version="1.1" id="Layer_1" xmlns="http://www.w3.org/2000/svg" xmlns:xlink="http://www.w3.org/1999/xlink" x="0px" y="0px"
	 viewBox="0 0 512 512" style="enable-background:new 0 0 512 512;" xml:space="preserve">
<circle style="fill:#E50914;" cx="256" cy="256" r="256"/>
<g>
	<path style="fill:#FFFFFF;" d="M96.312,314.056l-23.248-94.952h18.464l9.016,43.104c2.392,11.552,4.648,23.672,6.192,33.112h0.28
		c1.544-10,4.224-21.272,6.904-33.248l10.28-42.96h18.168l9.44,43.672c2.392,11.264,4.368,21.832,5.776,32.12h0.28
		c1.696-10.432,3.944-21.272,6.488-32.832l9.856-42.96h17.608l-25.496,94.944h-18.592l-9.856-44.656
		c-2.4-10.84-4.088-19.856-5.208-30.152h-0.28c-1.696,10.152-3.52,19.304-6.344,30.152l-10.984,44.656H96.312z"/>
	<path style="fill:#FFFFFF;" d="M220.152,314.056l-23.248-94.944h18.464l9.016,43.104c2.392,11.552,4.648,23.672,6.192,33.112h0.28
		c1.544-10,4.224-21.272,6.904-33.248l10.28-42.96h18.168l9.44,43.672c2.392,11.264,4.368,21.832,5.776,32.12h0.28
		c1.696-10.432,3.944-21.272,6.488-32.832l9.856-42.96h17.608l-25.496,94.936h-18.592l-9.856-44.656
		c-2.4-10.84-4.088-19.856-5.208-30.152h-0.28c-1.696,10.152-3.52,19.304-6.344,30.152l-10.984,44.656H220.152z"/>
	<path style="fill:#FFFFFF;" d="M343.984,314.056l-23.248-94.944H339.2l9.016,43.104c2.392,11.552,4.648,23.672,6.192,33.112h0.28
		c1.544-10,4.224-21.272,6.904-33.248l10.28-42.96h18.168l9.44,43.672c2.392,11.264,4.368,21.832,5.776,32.12h0.28
		c1.696-10.432,3.944-21.272,6.488-32.832l9.856-42.96h17.608l-25.504,94.944h-18.592l-9.856-44.656
		c-2.4-10.84-4.088-19.856-5.208-30.152h-0.28c-1.696,10.152-3.52,19.304-6.344,30.152l-10.984,44.656h-18.736L343.984,314.056
		L343.984,314.056z"/>
</g>
<g>
</g>
<g>
</g>
<g>
</g>
<g>
</g>
<g>
</g>
<g>
</g>
<g>
</g>
<g>
</g>
<g>
</g>
<g>
</g>
<g>
</g>
<g>
</g>
<g>
</g>
<g>
</g>
<g>
</g>
</svg>
